<?xml version="1.0" standalone="no"?>
<!DOCTYPE svg PUBLIC "-//W3C//DTD SVG 20010904//EN"
 "http://www.w3.org/TR/2001/REC-SVG-20010904/DTD/svg10.dtd">
<svg version="1.0" xmlns="http://www.w3.org/2000/svg"
 width="584.000000pt" height="584.000000pt" viewBox="0 0 584.000000 584.000000"
 preserveAspectRatio="xMidYMid meet">
<metadata>
Created by potrace 1.11, written by Peter Selinger 2001-2013
</metadata>
<g transform="translate(0.000000,584.000000) scale(0.100000,-0.100000)"
fill="#000000" stroke="none">
<path d="M0 2920 l0 -2920 2920 0 2920 0 0 2920 0 2920 -2920 0 -2920 0 0
-2920z m3496 2175 c40 -27 45 -61 42 -269 l-3 -198 -33 -29 c-32 -29 -32 -29
-167 -29 l-135 0 0 -148 0 -147 87 -18 c259 -54 457 -146 746 -350 8 -6 55 34
137 113 69 66 136 126 150 131 54 22 80 5 233 -149 197 -199 197 -184 -6 -389
l-130 -131 47 -80 c280 -479 312 -1099 81 -1613 -236 -525 -714 -905 -1280
-1020 -170 -34 -457 -38 -629 -9 -301 51 -540 153 -779 331 -624 467 -873
1280 -617 2015 132 376 422 731 767 938 156 93 372 177 546 211 l87 18 0 148
0 149 -135 0 c-135 0 -135 0 -167 29 l-33 29 -3 184 c-4 212 -1 237 35 272
l26 26 556 0 c472 0 560 -2 577 -15z"/>
<path d="M2694 3582 c-12 -9 -27 -27 -33 -39 -8 -15 -11 -217 -11 -688 0 -471
3 -673 11 -688 28 -54 38 -57 259 -57 221 0 231 3 259 57 8 15 11 220 11 698
l0 677 -29 29 -29 29 -209 0 c-182 0 -211 -3 -229 -18z"/>
</g>
</svg>
